<svg xmlns="http://www.w3.org/2000/svg" viewBox="0 0 476.63 174.57"><g id="Layer_2" data-name="Layer 2"><g id="Layer_1-2" data-name="Layer 1"><path d="M84.76,137.16c-4.09,5-8,9.65-11.8,14.35l-1.5-.92,37.26-76.18-1-.84L0,174.57c-.2-2.95,1.34-3.87,2.38-5Q55.86,113.87,109.28,58.1c3.07-3.21,5.12-3.45,8.66-.77,11.43,8.65,23.2,16.83,34.65,25.44,3.25,2.44,5.18,2.22,7.83-.81,18.52-21.21,37.21-42.27,55.8-63.42,4.65-5.29,4.55-5.33,10-.45C233,24.22,239.81,30.3,247.25,37L277.42,0c2.75.09,3.63,1.9,4.78,3.22q30.68,35.27,61.24,70.62c2.57,3,4.37,3.71,7.64,1,5.85-4.94,12.2-9.28,18.07-14.2,3.19-2.67,5.15-2.19,7.79.77q27,30.14,54.31,60.06,21.66,23.88,43.4,47.69c1,1.08,2.36,1.89,1.89,4.32L388.06,91.58l-.51.37,30.39,44.31-1.22,1.1L363.91,86.61l-.77.54,36,68.09-1.21.86L323,65.45c5.61,12.58,14.52,23,21.21,34.81l-1.14.93L302.54,57.7l-1,.65,32.7,57.13L333,116.59c-12-10-22.85-21.32-33.82-32.45s-21.91-22.75-33.35-33.86l40.1,71.28-1.27.94L224.8,43.2C206,68.36,187.56,92.91,169.16,117.46l-1.34-.56q4.52-12.77,9-25.53l-.92-.53-32.4,40.4-1.47-.65q2-16.62,4-33.23l-1-.6Q125.92,118,106.74,139.23l-1.4-.83q5.88-18.89,11.75-37.77L116,99.92Z"/></g></g></svg>