<svg id="Layer_1" data-name="Layer 1" xmlns="http://www.w3.org/2000/svg" viewBox="0 0 837 765"><defs><style>.cls-1{fill:#fbb03b;}.cls-2{fill:#8cc63f;}.cls-3{fill:#29abe2;}.cls-4,.cls-5{fill:none;stroke:#000;stroke-miterlimit:10;}.cls-4{stroke-width:20px;}.cls-5{stroke-width:14px;}.cls-6{font-size:39px;font-family:MyriadPro-Regular, Myriad Pro;}.cls-7{letter-spacing:0em;}.cls-8{letter-spacing:-0.02em;}.cls-9{letter-spacing:0em;}.cls-10{letter-spacing:-0.01em;}.cls-11{letter-spacing:0em;}.cls-12{letter-spacing:-0.01em;}.cls-13{letter-spacing:0.01em;}.cls-14{letter-spacing:-0.01em;}</style></defs><circle class="cls-1" cx="418.5" cy="166.5" r="166"/><path d="M976.5,100a165.49,165.49,0,1,1-117,48.47A164.41,164.41,0,0,1,976.5,100m0-1A166.5,166.5,0,1,0,1143,265.5,166.49,166.49,0,0,0,976.5,99Z" transform="translate(-558 -99)"/><circle class="cls-2" cx="166.5" cy="598.5" r="166"/><path d="M724.5,532a165.49,165.49,0,1,1-117,48.47A164.45,164.45,0,0,1,724.5,532m0-1A166.5,166.5,0,1,0,891,697.5,166.49,166.49,0,0,0,724.5,531Z" transform="translate(-558 -99)"/><circle class="cls-3" cx="670.5" cy="598.5" r="166"/><path d="M1228.5,532a165.49,165.49,0,1,1-117,48.47,164.45,164.45,0,0,1,117-48.47m0-1A166.5,166.5,0,1,0,1395,697.5,166.49,166.49,0,0,0,1228.5,531Z" transform="translate(-558 -99)"/><path class="cls-4" d="M1125,468" transform="translate(-558 -99)"/><line class="cls-5" x1="522" y1="306" x2="572.49" y2="390.14"/><polygon points="603 441 530.72 386.91 570.21 386.34 589.28 351.77 603 441"/><line class="cls-5" x1="495" y1="585" x2="401.31" y2="585"/><polygon points="342 585 425.57 550.85 405.74 585 425.57 619.14 342 585"/><line class="cls-5" x1="252" y1="441" x2="294.57" y2="366.49"/><polygon points="324 315 312.19 404.5 292.38 370.34 252.89 370.62 324 315"/><text class="cls-6" transform="translate(342 171)">Ide<tspan class="cls-7" x="50.86" y="0">n</tspan><tspan x="72.34" y="0">tifiser</tspan></text><text class="cls-6" transform="translate(585.16 602.75)"><tspan class="cls-8">P</tspan><tspan class="cls-9" x="20.12" y="0">r</tspan><tspan x="33.03" y="0">io</tspan><tspan class="cls-9" x="63.57" y="0">r</tspan><tspan x="76.48" y="0">i</tspan><tspan class="cls-10" x="85.6" y="0">t</tspan><tspan class="cls-11" x="98.28" y="0">e</tspan><tspan class="cls-12" x="117.82" y="0">r</tspan><tspan x="130.18" y="0">er</tspan></text><text class="cls-6" transform="translate(90.16 602.75)"><tspan class="cls-13">I</tspan><tspan class="cls-7" x="9.71" y="0">n</tspan><tspan class="cls-10" x="31.2" y="0">t</tspan><tspan x="43.87" y="0">e</tspan><tspan class="cls-10" x="63.41" y="0">g</tspan><tspan class="cls-12" x="84.98" y="0">r</tspan><tspan x="97.34" y="0">e</tspan><tspan class="cls-14" x="116.88" y="0">r</tspan><tspan x="129.24" y="0">e</tspan></text></svg>