<svg version="1.1" id="Layer_1" xmlns="http://www.w3.org/2000/svg" xmlns:xlink="http://www.w3.org/1999/xlink" x="0px" y="0px"
	 width="100%" viewBox="0 0 1702 464" enable-background="new 0 0 1702 464" xml:space="preserve">
<path fill="#642341" opacity="1.000000" stroke="none" 
	d="
M1625.000000,465.000000 
	C1083.395630,465.000000 542.291382,465.000000 1.093526,465.000000 
	C1.093526,310.413544 1.093526,155.827026 1.093526,1.120257 
	C568.333313,1.120257 1135.666626,1.120257 1702.995117,1.120257 
	C1702.995117,155.708893 1702.995117,310.354431 1702.992676,465.000000 
	C1677.160034,465.000000 1651.330078,465.000000 1625.000000,465.000000 
M600.965210,239.537186 
	C604.760986,243.110825 605.872986,247.625748 605.859619,252.674164 
	C605.801758,274.498474 605.835144,296.322998 605.835327,318.147461 
	C605.835327,320.067780 605.835266,321.988098 605.835266,323.983551 
	C618.260315,323.983551 629.849487,323.983551 641.445251,323.983551 
	C641.668274,323.254028 641.932190,322.793732 641.932129,322.333435 
	C641.929260,292.013458 642.357971,261.683990 641.723511,231.376831 
	C641.300476,211.170029 629.885254,196.067154 612.843140,190.483566 
	C594.932983,184.615555 575.616150,190.411743 562.949585,205.606873 
	C560.234863,208.863510 557.921814,212.454941 555.177734,216.230530 
	C547.545959,198.466797 534.629395,188.740524 515.372192,188.508789 
	C496.096222,188.276794 483.819458,199.300156 473.880066,214.568314 
	C473.880066,207.135971 473.880066,199.703629 473.880066,192.103973 
	C461.758759,192.103973 450.059845,192.103973 438.231567,192.103973 
	C438.231567,236.227478 438.231567,279.958221 438.231567,323.897766 
	C450.230743,323.897766 461.929596,323.897766 474.069489,323.897766 
	C474.069489,321.726074 474.069458,319.922455 474.069458,318.118805 
	C474.069641,296.294342 474.154449,274.469421 474.025055,252.645721 
	C473.978638,244.820953 477.593536,239.707199 484.549438,236.714539 
	C492.677521,233.217545 501.071930,232.881195 509.465088,235.423737 
	C518.226074,238.077713 521.821838,243.235916 521.829102,252.438248 
	C521.846436,274.262695 521.834961,296.087158 521.835205,317.911621 
	C521.835205,319.852692 521.835205,321.793762 521.835205,323.882019 
	C534.210022,323.882019 545.908630,323.882019 557.995850,323.882019 
	C557.995850,321.687927 557.995789,319.880371 557.995850,318.072784 
	C557.996887,296.081726 558.084229,274.090179 557.948730,252.099945 
	C557.905579,245.086334 561.020508,240.013107 567.081299,237.316055 
	C578.336487,232.307465 589.632324,231.966721 600.965210,239.537186 
M716.433533,188.832764 
	C698.333679,188.242706 683.242920,194.774765 671.134460,208.159042 
	C653.563354,227.581589 649.923706,250.634781 654.676270,275.379150 
	C658.481567,295.191559 669.295532,310.617798 686.938049,320.725494 
	C707.969604,332.774872 735.389526,329.153442 750.912476,312.522034 
	C753.460876,309.791656 755.652832,306.728546 758.994507,302.603302 
	C758.994507,310.672058 758.994507,317.346161 758.994507,323.941895 
	C771.330261,323.941895 782.920898,323.941895 794.565552,323.941895 
	C794.565552,279.739868 794.565552,235.879181 794.565552,192.065063 
	C782.540405,192.065063 770.950928,192.065063 758.850098,192.065063 
	C758.850098,199.115707 758.850098,205.828583 758.850098,212.541443 
	C748.454468,198.117355 735.423279,189.161896 716.433533,188.832764 
M136.999588,271.500000 
	C136.999588,288.940521 136.999588,306.381042 136.999588,323.841858 
	C149.379684,323.841858 161.087997,323.841858 172.932480,323.841858 
	C173.022720,322.097992 173.149185,320.783997 173.150024,319.469940 
	C173.163605,298.136810 173.239487,276.803284 173.122391,255.470795 
	C173.078201,247.417740 176.637421,241.783691 183.629608,238.181137 
	C192.761551,233.476089 202.531509,232.918045 212.381653,234.652512 
	C226.688217,237.171646 231.929703,243.745102 231.931992,258.228790 
	C231.935196,278.395264 231.927124,298.561707 231.943085,318.728180 
	C231.944473,320.485199 232.088379,322.242096 232.162766,323.923828 
	C244.371582,323.923828 255.956940,323.923828 267.546997,323.923828 
	C267.739258,323.116516 267.948700,322.647278 267.948761,322.178009 
	C267.952942,292.178864 268.274323,262.174133 267.773071,232.183182 
	C267.556580,219.229416 262.230103,208.000412 252.082718,199.353943 
	C235.102936,184.885712 197.666397,181.490219 178.551956,210.422852 
	C177.060028,212.681107 175.498886,214.893646 173.969910,217.127441 
	C173.665405,217.009201 173.360886,216.890945 173.056366,216.772705 
	C173.056366,190.367401 173.056366,163.962097 173.056366,137.308044 
	C160.884689,137.308044 149.164948,137.308044 136.999588,137.308044 
	C136.999588,181.909988 136.999588,226.205002 136.999588,271.500000 
M416.165253,199.555542 
	C416.165253,197.116318 416.165253,194.677094 416.165253,192.127594 
	C403.769440,192.127594 392.069489,192.127594 380.004333,192.127594 
	C380.004333,194.343185 380.006042,196.153290 380.004059,197.963379 
	C379.980560,219.292252 379.960297,240.621109 379.930725,261.949982 
	C379.918121,271.057587 376.786957,275.677185 368.386749,279.236084 
	C360.272308,282.673950 351.834503,283.075409 343.378113,281.373291 
	C330.360291,278.753021 325.996857,273.143982 325.996063,259.991516 
	C325.994781,239.162308 325.995636,218.333099 325.995605,197.503891 
	C325.995605,195.729828 325.995605,193.955765 325.995605,192.149933 
	C313.621796,192.149933 301.915100,192.149933 290.337952,192.149933 
	C290.115997,192.898346 289.942169,193.210526 289.942413,193.522583 
	C289.966888,224.013779 289.621613,254.512451 290.216217,284.992737 
	C290.480682,298.550140 296.541382,310.120819 307.534729,318.510132 
	C328.628174,334.607056 359.166046,329.200165 374.824738,306.742493 
	C376.357269,304.544495 377.800598,302.284332 379.285309,300.053009 
	C379.602325,300.193115 379.919312,300.333221 380.236328,300.473328 
	C380.236328,308.248749 380.236328,316.024200 380.236328,323.858398 
	C392.352997,323.858398 404.058685,323.858398 416.165314,323.858398 
	C416.165314,282.471863 416.165314,241.506027 416.165253,199.555542 
M1425.296631,259.497498 
	C1425.296631,237.420715 1425.296631,215.343948 1425.296631,193.387848 
	C1420.658325,193.387848 1416.771240,193.387848 1412.480957,193.387848 
	C1412.480957,212.487503 1412.480957,231.201248 1412.480957,251.181824 
	C1411.020386,248.880417 1410.195190,247.705261 1409.495972,246.459320 
	C1400.214966,229.923889 1391.000610,213.350601 1381.606323,196.879776 
	C1380.689087,195.271576 1378.826782,193.441025 1377.168213,193.174408 
	C1373.639282,192.607147 1369.955811,193.001129 1366.225098,193.001129 
	C1366.225098,220.553345 1366.225098,247.609924 1366.225098,274.647522 
	C1370.408325,274.647522 1374.287842,274.647522 1378.825317,274.647522 
	C1378.825317,255.679062 1378.825317,237.055786 1378.825317,218.432495 
	C1380.164062,219.174149 1380.665039,219.991562 1381.136230,220.825821 
	C1390.707397,237.771133 1400.241821,254.737534 1409.905640,271.629852 
	C1410.693970,273.007690 1412.265747,274.676361 1413.636719,274.839630 
	C1417.365234,275.283783 1421.181519,274.992218 1425.296631,274.992218 
	C1425.296631,269.779510 1425.296631,265.138062 1425.296631,259.497498 
M1282.359863,200.171036 
	C1278.993530,198.137314 1275.766724,194.674515 1272.235352,194.329300 
	C1260.102417,193.143234 1247.862671,193.048508 1235.686157,192.538788 
	C1235.686157,220.726532 1235.686157,247.751617 1235.686157,274.652802 
	C1240.000244,274.652802 1243.906006,274.652802 1248.145508,274.652802 
	C1248.145508,262.366364 1248.145508,250.431305 1248.145508,238.680679 
	C1254.655029,236.853806 1258.507446,238.861313 1261.639282,244.753815 
	C1266.623535,254.131348 1272.618652,262.976349 1278.313843,271.965729 
	C1279.103760,273.212616 1280.555542,274.751129 1281.813477,274.860443 
	C1285.998657,275.224213 1290.235229,274.998077 1295.151489,274.998077 
	C1287.132324,261.984009 1279.604370,249.766922 1272.043579,237.496643 
	C1287.870972,230.667297 1292.378540,214.722321 1282.359863,200.171036 
M1511.668701,192.994614 
	C1510.231689,193.090088 1508.794678,193.185562 1507.425293,193.276535 
	C1507.425293,220.692108 1507.425293,247.738647 1507.425293,274.710938 
	C1511.714355,274.710938 1515.640625,274.710938 1520.175293,274.710938 
	C1520.175293,262.385010 1520.175293,250.340439 1520.175293,238.741959 
	C1526.941040,236.687500 1530.441284,239.301498 1533.423218,244.752762 
	C1538.444580,253.932571 1544.264282,262.680359 1549.884766,271.522888 
	C1550.769287,272.914398 1552.284058,274.692322 1553.660156,274.836914 
	C1557.818970,275.273865 1562.052856,274.994720 1566.967896,274.994720 
	C1558.949707,261.988586 1551.463745,249.845779 1543.988159,237.719910 
	C1544.447876,237.364426 1544.663574,237.095032 1544.939819,236.998749 
	C1557.882324,232.486679 1560.869385,220.998810 1558.717041,209.454102 
	C1556.778809,199.057938 1548.168091,193.117569 1535.627563,193.006622 
	C1527.965332,192.938843 1520.302002,192.993942 1511.668701,192.994614 
M951.000732,258.500000 
	C951.000732,269.331787 951.000366,280.163574 951.000854,290.995361 
	C951.001282,300.493988 950.923584,309.993591 951.037903,319.490845 
	C951.092957,324.061401 954.028137,327.025360 958.004272,326.984894 
	C962.058228,326.943634 964.770447,324.037994 964.988464,319.479034 
	C965.028259,318.647644 964.997742,317.812866 964.997742,316.979645 
	C964.997925,260.321106 964.998352,203.662567 964.995056,147.004028 
	C964.994995,145.671814 965.177917,144.288467 964.888367,143.017105 
	C964.065796,139.404785 961.915710,136.931534 957.990540,137.070206 
	C954.007874,137.210876 951.508850,139.413406 951.054443,143.519348 
	C950.908630,144.837326 951.002136,146.182861 951.002075,147.515778 
	C951.000366,184.177185 951.000732,220.838593 951.000732,258.500000 
M1478.480225,192.995270 
	C1466.686890,192.995270 1454.893433,192.995270 1442.972900,192.995270 
	C1442.972900,220.527802 1442.972900,247.622864 1442.972900,274.668518 
	C1459.331665,274.668518 1475.412354,274.668518 1491.448486,274.668518 
	C1491.448486,270.603577 1491.448486,266.882599 1491.448486,262.773407 
	C1479.282593,262.773407 1467.494141,262.773407 1455.613770,262.773407 
	C1455.613770,254.287338 1455.613770,246.202408 1455.613770,237.423523 
	C1465.131592,237.423523 1474.355225,237.423523 1483.567993,237.423523 
	C1483.567993,233.112656 1483.567993,229.506332 1483.567993,225.249741 
	C1474.085327,225.249741 1464.847656,225.249741 1455.690063,225.249741 
	C1455.690063,218.192093 1455.690063,211.799728 1455.690063,204.911545 
	C1467.484131,204.911545 1478.896851,204.911545 1490.321045,204.911545 
	C1490.321045,200.671906 1490.321045,196.950378 1490.321045,192.995270 
	C1486.453369,192.995270 1482.961548,192.995270 1478.480225,192.995270 
M1164.445679,275.009308 
	C1168.451172,275.648254 1170.876587,274.442596 1171.759644,270.024200 
	C1172.567261,265.982697 1173.972778,261.994904 1175.659180,258.227051 
	C1176.334106,256.718719 1178.422607,254.935303 1179.940552,254.865479 
	C1187.414551,254.521576 1194.916870,254.847122 1202.401001,254.641693 
	C1205.203369,254.564789 1206.108765,255.907425 1206.815918,258.186981 
	C1208.567017,263.832428 1210.467773,269.431427 1212.225952,274.797485 
	C1216.791748,274.797485 1220.743896,274.797485 1224.993774,274.797485 
	C1224.491821,273.115753 1224.118896,271.692963 1223.645020,270.304657 
	C1216.028320,247.994415 1208.371460,225.697830 1200.783813,203.377716 
	C1197.046021,192.382904 1197.101318,192.364105 1185.044800,193.245361 
	C1175.794556,220.268677 1166.505005,247.406662 1157.056396,275.009308 
	C1159.589844,275.009308 1161.571777,275.009308 1164.445679,275.009308 
M1106.993408,266.450317 
	C1106.993408,269.216614 1106.993408,271.982910 1106.993408,274.738403 
	C1111.538208,274.738403 1115.455322,274.738403 1119.933838,274.738403 
	C1119.933838,263.599091 1119.933838,252.711456 1119.933838,241.150742 
	C1127.130493,241.150742 1133.797974,241.583725 1140.388306,241.055206 
	C1151.967651,240.126633 1160.198975,231.304138 1160.972412,219.763962 
	C1161.863403,206.473724 1155.315674,195.549744 1143.353638,194.144882 
	C1131.473267,192.749634 1119.301270,193.839432 1106.993408,193.839432 
	C1106.993408,217.581802 1106.993408,241.521194 1106.993408,266.450317 
M1312.503540,192.999710 
	C1307.404419,192.999710 1302.305176,192.999710 1297.265869,192.999710 
	C1297.265869,197.348099 1297.265869,201.077621 1297.265869,205.175171 
	C1304.701538,205.175171 1311.804565,205.175171 1319.485107,205.175171 
	C1319.485107,228.596329 1319.485107,251.648026 1319.485107,274.677551 
	C1323.988647,274.677551 1327.897095,274.677551 1332.070068,274.677551 
	C1332.070068,262.891296 1332.070068,251.424347 1332.070068,239.957397 
	C1332.070068,228.388977 1332.070068,216.820557 1332.070068,204.771332 
	C1340.123779,204.771332 1347.360718,204.771332 1354.574707,204.771332 
	C1354.574707,200.669373 1354.574707,197.072784 1354.574707,192.999710 
	C1340.717773,192.999710 1327.109863,192.999710 1312.503540,192.999710 
z"/>
<path fill="#FFB74B" opacity="1.000000" stroke="none" 
	d="
M600.675354,239.309021 
	C589.632324,231.966721 578.336487,232.307465 567.081299,237.316055 
	C561.020508,240.013107 557.905579,245.086334 557.948730,252.099945 
	C558.084229,274.090179 557.996887,296.081726 557.995850,318.072784 
	C557.995789,319.880371 557.995850,321.687927 557.995850,323.882019 
	C545.908630,323.882019 534.210022,323.882019 521.835205,323.882019 
	C521.835205,321.793762 521.835205,319.852692 521.835205,317.911621 
	C521.834961,296.087158 521.846436,274.262695 521.829102,252.438248 
	C521.821838,243.235916 518.226074,238.077713 509.465088,235.423737 
	C501.071930,232.881195 492.677521,233.217545 484.549438,236.714539 
	C477.593536,239.707199 473.978638,244.820953 474.025055,252.645721 
	C474.154449,274.469421 474.069641,296.294342 474.069458,318.118805 
	C474.069458,319.922455 474.069489,321.726074 474.069489,323.897766 
	C461.929596,323.897766 450.230743,323.897766 438.231567,323.897766 
	C438.231567,279.958221 438.231567,236.227478 438.231567,192.103973 
	C450.059845,192.103973 461.758759,192.103973 473.880066,192.103973 
	C473.880066,199.703629 473.880066,207.135971 473.880066,214.568314 
	C483.819458,199.300156 496.096222,188.276794 515.372192,188.508789 
	C534.629395,188.740524 547.545959,198.466797 555.177734,216.230530 
	C557.921814,212.454941 560.234863,208.863510 562.949585,205.606873 
	C575.616150,190.411743 594.932983,184.615555 612.843140,190.483566 
	C629.885254,196.067154 641.300476,211.170029 641.723511,231.376831 
	C642.357971,261.683990 641.929260,292.013458 641.932129,322.333435 
	C641.932190,322.793732 641.668274,323.254028 641.445251,323.983551 
	C629.849487,323.983551 618.260315,323.983551 605.835266,323.983551 
	C605.835266,321.988098 605.835327,320.067780 605.835327,318.147461 
	C605.835144,296.322998 605.801758,274.498474 605.859619,252.674164 
	C605.872986,247.625748 604.760986,243.110825 600.675354,239.309021 
z"/>
<path fill="#FEB64B" opacity="1.000000" stroke="none" 
	d="
M716.915283,188.836487 
	C735.423279,189.161896 748.454468,198.117355 758.850098,212.541443 
	C758.850098,205.828583 758.850098,199.115707 758.850098,192.065063 
	C770.950928,192.065063 782.540405,192.065063 794.565552,192.065063 
	C794.565552,235.879181 794.565552,279.739868 794.565552,323.941895 
	C782.920898,323.941895 771.330261,323.941895 758.994507,323.941895 
	C758.994507,317.346161 758.994507,310.672058 758.994507,302.603302 
	C755.652832,306.728546 753.460876,309.791656 750.912476,312.522034 
	C735.389526,329.153442 707.969604,332.774872 686.938049,320.725494 
	C669.295532,310.617798 658.481567,295.191559 654.676270,275.379150 
	C649.923706,250.634781 653.563354,227.581589 671.134460,208.159042 
	C683.242920,194.774765 698.333679,188.242706 716.915283,188.836487 
M708.375061,236.778183 
	C706.108032,237.803284 703.725281,238.631577 701.592529,239.885117 
	C686.733704,248.618393 686.368347,267.371735 701.237183,276.025879 
	C716.357239,284.826324 731.997314,284.701355 747.391724,276.385590 
	C754.679871,272.448730 758.884583,266.153320 758.745422,257.760620 
	C758.602295,249.125916 753.800415,243.081802 746.351807,239.221161 
	C734.371033,233.011383 721.891174,232.250488 708.375061,236.778183 
z"/>
<path fill="#FFB74B" opacity="1.000000" stroke="none" 
	d="
M136.999588,271.000000 
	C136.999588,226.205002 136.999588,181.909988 136.999588,137.308044 
	C149.164948,137.308044 160.884689,137.308044 173.056366,137.308044 
	C173.056366,163.962097 173.056366,190.367401 173.056366,216.772705 
	C173.360886,216.890945 173.665405,217.009201 173.969910,217.127441 
	C175.498886,214.893646 177.060028,212.681107 178.551956,210.422852 
	C197.666397,181.490219 235.102936,184.885712 252.082718,199.353943 
	C262.230103,208.000412 267.556580,219.229416 267.773071,232.183182 
	C268.274323,262.174133 267.952942,292.178864 267.948761,322.178009 
	C267.948700,322.647278 267.739258,323.116516 267.546997,323.923828 
	C255.956940,323.923828 244.371582,323.923828 232.162766,323.923828 
	C232.088379,322.242096 231.944473,320.485199 231.943085,318.728180 
	C231.927124,298.561707 231.935196,278.395264 231.931992,258.228790 
	C231.929703,243.745102 226.688217,237.171646 212.381653,234.652512 
	C202.531509,232.918045 192.761551,233.476089 183.629608,238.181137 
	C176.637421,241.783691 173.078201,247.417740 173.122391,255.470795 
	C173.239487,276.803284 173.163605,298.136810 173.150024,319.469940 
	C173.149185,320.783997 173.022720,322.097992 172.932480,323.841858 
	C161.087997,323.841858 149.379684,323.841858 136.999588,323.841858 
	C136.999588,306.381042 136.999588,288.940521 136.999588,271.000000 
z"/>
<path fill="#FFB74B" opacity="1.000000" stroke="none" 
	d="
M416.165283,200.047867 
	C416.165314,241.506027 416.165314,282.471863 416.165314,323.858398 
	C404.058685,323.858398 392.352997,323.858398 380.236328,323.858398 
	C380.236328,316.024200 380.236328,308.248749 380.236328,300.473328 
	C379.919312,300.333221 379.602325,300.193115 379.285309,300.053009 
	C377.800598,302.284332 376.357269,304.544495 374.824738,306.742493 
	C359.166046,329.200165 328.628174,334.607056 307.534729,318.510132 
	C296.541382,310.120819 290.480682,298.550140 290.216217,284.992737 
	C289.621613,254.512451 289.966888,224.013779 289.942413,193.522583 
	C289.942169,193.210526 290.115997,192.898346 290.337952,192.149933 
	C301.915100,192.149933 313.621796,192.149933 325.995605,192.149933 
	C325.995605,193.955765 325.995605,195.729828 325.995605,197.503891 
	C325.995636,218.333099 325.994781,239.162308 325.996063,259.991516 
	C325.996857,273.143982 330.360291,278.753021 343.378113,281.373291 
	C351.834503,283.075409 360.272308,282.673950 368.386749,279.236084 
	C376.786957,275.677185 379.918121,271.057587 379.930725,261.949982 
	C379.960297,240.621109 379.980560,219.292252 380.004059,197.963379 
	C380.006042,196.153290 380.004333,194.343185 380.004333,192.127594 
	C392.069489,192.127594 403.769440,192.127594 416.165253,192.127594 
	C416.165253,194.677094 416.165253,197.116318 416.165283,200.047867 
z"/>
<path fill="#FBF0DA" opacity="1.000000" stroke="none" 
	d="
M1425.296631,259.997040 
	C1425.296631,265.138062 1425.296631,269.779510 1425.296631,274.992218 
	C1421.181519,274.992218 1417.365234,275.283783 1413.636719,274.839630 
	C1412.265747,274.676361 1410.693970,273.007690 1409.905640,271.629852 
	C1400.241821,254.737534 1390.707397,237.771133 1381.136230,220.825821 
	C1380.665039,219.991562 1380.164062,219.174149 1378.825317,218.432495 
	C1378.825317,237.055786 1378.825317,255.679062 1378.825317,274.647522 
	C1374.287842,274.647522 1370.408325,274.647522 1366.225098,274.647522 
	C1366.225098,247.609924 1366.225098,220.553345 1366.225098,193.001129 
	C1369.955811,193.001129 1373.639282,192.607147 1377.168213,193.174408 
	C1378.826782,193.441025 1380.689087,195.271576 1381.606323,196.879776 
	C1391.000610,213.350601 1400.214966,229.923889 1409.495972,246.459320 
	C1410.195190,247.705261 1411.020386,248.880417 1412.480957,251.181824 
	C1412.480957,231.201248 1412.480957,212.487503 1412.480957,193.387848 
	C1416.771240,193.387848 1420.658325,193.387848 1425.296631,193.387848 
	C1425.296631,215.343948 1425.296631,237.420715 1425.296631,259.997040 
z"/>
<path fill="#F8EDD8" opacity="1.000000" stroke="none" 
	d="
M1282.595947,200.442780 
	C1292.378540,214.722321 1287.870972,230.667297 1272.043579,237.496643 
	C1279.604370,249.766922 1287.132324,261.984009 1295.151489,274.998077 
	C1290.235229,274.998077 1285.998657,275.224213 1281.813477,274.860443 
	C1280.555542,274.751129 1279.103760,273.212616 1278.313843,271.965729 
	C1272.618652,262.976349 1266.623535,254.131348 1261.639282,244.753815 
	C1258.507446,238.861313 1254.655029,236.853806 1248.145508,238.680679 
	C1248.145508,250.431305 1248.145508,262.366364 1248.145508,274.652802 
	C1243.906006,274.652802 1240.000244,274.652802 1235.686157,274.652802 
	C1235.686157,247.751617 1235.686157,220.726532 1235.686157,192.538788 
	C1247.862671,193.048508 1260.102417,193.143234 1272.235352,194.329300 
	C1275.766724,194.674515 1278.993530,198.137314 1282.595947,200.442780 
M1248.002686,216.483154 
	C1248.002686,219.570724 1248.002686,222.658279 1248.002686,225.974609 
	C1254.079712,225.974609 1259.531982,226.121674 1264.972778,225.935135 
	C1270.962646,225.729767 1274.371094,222.139465 1274.676392,216.148773 
	C1274.977539,210.235336 1271.835938,205.824234 1266.078735,205.351044 
	C1260.212646,204.868942 1254.276001,205.244446 1248.002686,205.244446 
	C1248.002686,208.936920 1248.002686,212.220688 1248.002686,216.483154 
z"/>
<path fill="#F9EED8" opacity="1.000000" stroke="none" 
	d="
M1512.153931,192.994232 
	C1520.302002,192.993942 1527.965332,192.938843 1535.627563,193.006622 
	C1548.168091,193.117569 1556.778809,199.057938 1558.717041,209.454102 
	C1560.869385,220.998810 1557.882324,232.486679 1544.939819,236.998749 
	C1544.663574,237.095032 1544.447876,237.364426 1543.988159,237.719910 
	C1551.463745,249.845779 1558.949707,261.988586 1566.967896,274.994720 
	C1562.052856,274.994720 1557.818970,275.273865 1553.660156,274.836914 
	C1552.284058,274.692322 1550.769287,272.914398 1549.884766,271.522888 
	C1544.264282,262.680359 1538.444580,253.932571 1533.423218,244.752762 
	C1530.441284,239.301498 1526.941040,236.687500 1520.175293,238.741959 
	C1520.175293,250.340439 1520.175293,262.385010 1520.175293,274.710938 
	C1515.640625,274.710938 1511.714355,274.710938 1507.425293,274.710938 
	C1507.425293,247.738647 1507.425293,220.692108 1507.425293,193.276535 
	C1508.794678,193.185562 1510.231689,193.090088 1512.153931,192.994232 
M1546.130249,212.963654 
	C1545.420410,208.342621 1542.431152,205.728256 1538.081665,205.422699 
	C1532.181641,205.008240 1526.230713,205.319550 1520.285767,205.319550 
	C1520.285767,212.371857 1520.285767,219.077164 1520.285767,225.707382 
	C1520.962524,225.842148 1521.279907,225.958954 1521.597778,225.960541 
	C1525.924316,225.982239 1530.250977,226.014709 1534.577393,225.992035 
	C1543.414551,225.945709 1546.319580,222.897629 1546.130249,212.963654 
z"/>
<path fill="#FCF0DB" opacity="1.000000" stroke="none" 
	d="
M951.000732,258.000000 
	C951.000732,220.838593 951.000366,184.177185 951.002075,147.515778 
	C951.002136,146.182861 950.908630,144.837326 951.054443,143.519348 
	C951.508850,139.413406 954.007874,137.210876 957.990540,137.070206 
	C961.915710,136.931534 964.065796,139.404785 964.888367,143.017105 
	C965.177917,144.288467 964.994995,145.671814 964.995056,147.004028 
	C964.998352,203.662567 964.997925,260.321106 964.997742,316.979645 
	C964.997742,317.812866 965.028259,318.647644 964.988464,319.479034 
	C964.770447,324.037994 962.058228,326.943634 958.004272,326.984894 
	C954.028137,327.025360 951.092957,324.061401 951.037903,319.490845 
	C950.923584,309.993591 951.001282,300.493988 951.000854,290.995361 
	C951.000366,280.163574 951.000732,269.331787 951.000732,258.000000 
z"/>
<path fill="#FAEED9" opacity="1.000000" stroke="none" 
	d="
M1478.974976,192.995270 
	C1482.961548,192.995270 1486.453369,192.995270 1490.321045,192.995270 
	C1490.321045,196.950378 1490.321045,200.671906 1490.321045,204.911545 
	C1478.896851,204.911545 1467.484131,204.911545 1455.690063,204.911545 
	C1455.690063,211.799728 1455.690063,218.192093 1455.690063,225.249741 
	C1464.847656,225.249741 1474.085327,225.249741 1483.567993,225.249741 
	C1483.567993,229.506332 1483.567993,233.112656 1483.567993,237.423523 
	C1474.355225,237.423523 1465.131592,237.423523 1455.613770,237.423523 
	C1455.613770,246.202408 1455.613770,254.287338 1455.613770,262.773407 
	C1467.494141,262.773407 1479.282593,262.773407 1491.448486,262.773407 
	C1491.448486,266.882599 1491.448486,270.603577 1491.448486,274.668518 
	C1475.412354,274.668518 1459.331665,274.668518 1442.972900,274.668518 
	C1442.972900,247.622864 1442.972900,220.527802 1442.972900,192.995270 
	C1454.893433,192.995270 1466.686890,192.995270 1478.974976,192.995270 
z"/>
<path fill="#F8ECD7" opacity="1.000000" stroke="none" 
	d="
M1163.999634,275.009308 
	C1161.571777,275.009308 1159.589844,275.009308 1157.056396,275.009308 
	C1166.505005,247.406662 1175.794556,220.268677 1185.044800,193.245361 
	C1197.101318,192.364105 1197.046021,192.382904 1200.783813,203.377716 
	C1208.371460,225.697830 1216.028320,247.994415 1223.645020,270.304657 
	C1224.118896,271.692963 1224.491821,273.115753 1224.993774,274.797485 
	C1220.743896,274.797485 1216.791748,274.797485 1212.225952,274.797485 
	C1210.467773,269.431427 1208.567017,263.832428 1206.815918,258.186981 
	C1206.108765,255.907425 1205.203369,254.564789 1202.401001,254.641693 
	C1194.916870,254.847122 1187.414551,254.521576 1179.940552,254.865479 
	C1178.422607,254.935303 1176.334106,256.718719 1175.659180,258.227051 
	C1173.972778,261.994904 1172.567261,265.982697 1171.759644,270.024200 
	C1170.876587,274.442596 1168.451172,275.648254 1163.999634,275.009308 
M1198.403809,232.068893 
	C1196.161011,225.029831 1193.918213,217.990753 1191.675415,210.951691 
	C1191.347900,210.912399 1191.020386,210.873123 1190.692871,210.833832 
	C1187.390137,221.092041 1184.087402,231.350266 1180.650024,242.026489 
	C1187.760864,242.026489 1194.313477,242.026489 1201.436035,242.026489 
	C1200.469604,238.728485 1199.601196,235.765244 1198.403809,232.068893 
z"/>
<path fill="#F9EED9" opacity="1.000000" stroke="none" 
	d="
M1106.993408,265.955444 
	C1106.993408,241.521194 1106.993408,217.581802 1106.993408,193.839432 
	C1119.301270,193.839432 1131.473267,192.749634 1143.353638,194.144882 
	C1155.315674,195.549744 1161.863403,206.473724 1160.972412,219.763962 
	C1160.198975,231.304138 1151.967651,240.126633 1140.388306,241.055206 
	C1133.797974,241.583725 1127.130493,241.150742 1119.933838,241.150742 
	C1119.933838,252.711456 1119.933838,263.599091 1119.933838,274.738403 
	C1115.455322,274.738403 1111.538208,274.738403 1106.993408,274.738403 
	C1106.993408,271.982910 1106.993408,269.216614 1106.993408,265.955444 
M1135.273926,229.298035 
	C1136.268433,229.239212 1137.269043,229.230728 1138.256592,229.113327 
	C1144.270264,228.398376 1147.671021,224.704239 1148.028809,218.534317 
	C1148.446899,211.322723 1145.487671,206.208527 1139.320190,205.539749 
	C1132.987549,204.853073 1126.522461,205.387451 1120.148682,205.387451 
	C1120.148682,213.477112 1120.148682,221.205582 1120.148682,229.300629 
	C1125.082275,229.300629 1129.704956,229.300629 1135.273926,229.298035 
z"/>
<path fill="#FBF0DA" opacity="1.000000" stroke="none" 
	d="
M1313.002686,192.999710 
	C1327.109863,192.999710 1340.717773,192.999710 1354.574707,192.999710 
	C1354.574707,197.072784 1354.574707,200.669373 1354.574707,204.771332 
	C1347.360718,204.771332 1340.123779,204.771332 1332.070068,204.771332 
	C1332.070068,216.820557 1332.070068,228.388977 1332.070068,239.957397 
	C1332.070068,251.424347 1332.070068,262.891296 1332.070068,274.677551 
	C1327.897095,274.677551 1323.988647,274.677551 1319.485107,274.677551 
	C1319.485107,251.648026 1319.485107,228.596329 1319.485107,205.175171 
	C1311.804565,205.175171 1304.701538,205.175171 1297.265869,205.175171 
	C1297.265869,201.077621 1297.265869,197.348099 1297.265869,192.999710 
	C1302.305176,192.999710 1307.404419,192.999710 1313.002686,192.999710 
z"/>
<path fill="#652441" opacity="1.000000" stroke="none" 
	d="
M708.731384,236.608780 
	C721.891174,232.250488 734.371033,233.011383 746.351807,239.221161 
	C753.800415,243.081802 758.602295,249.125916 758.745422,257.760620 
	C758.884583,266.153320 754.679871,272.448730 747.391724,276.385590 
	C731.997314,284.701355 716.357239,284.826324 701.237183,276.025879 
	C686.368347,267.371735 686.733704,248.618393 701.592529,239.885117 
	C703.725281,238.631577 706.108032,237.803284 708.731384,236.608780 
z"/>
<path fill="#662643" opacity="1.000000" stroke="none" 
	d="
M1248.002686,215.993805 
	C1248.002686,212.220688 1248.002686,208.936920 1248.002686,205.244446 
	C1254.276001,205.244446 1260.212646,204.868942 1266.078735,205.351044 
	C1271.835938,205.824234 1274.977539,210.235336 1274.676392,216.148773 
	C1274.371094,222.139465 1270.962646,225.729767 1264.972778,225.935135 
	C1259.531982,226.121674 1254.079712,225.974609 1248.002686,225.974609 
	C1248.002686,222.658279 1248.002686,219.570724 1248.002686,215.993805 
z"/>
<path fill="#662543" opacity="1.000000" stroke="none" 
	d="
M1546.184082,213.389618 
	C1546.319580,222.897629 1543.414551,225.945709 1534.577393,225.992035 
	C1530.250977,226.014709 1525.924316,225.982239 1521.597778,225.960541 
	C1521.279907,225.958954 1520.962524,225.842148 1520.285767,225.707382 
	C1520.285767,219.077164 1520.285767,212.371857 1520.285767,205.319550 
	C1526.230713,205.319550 1532.181641,205.008240 1538.081665,205.422699 
	C1542.431152,205.728256 1545.420410,208.342621 1546.184082,213.389618 
z"/>
<path fill="#672844" opacity="1.000000" stroke="none" 
	d="
M1198.568359,232.435455 
	C1199.601196,235.765244 1200.469604,238.728485 1201.436035,242.026489 
	C1194.313477,242.026489 1187.760864,242.026489 1180.650024,242.026489 
	C1184.087402,231.350266 1187.390137,221.092041 1190.692871,210.833832 
	C1191.020386,210.873123 1191.347900,210.912399 1191.675415,210.951691 
	C1193.918213,217.990753 1196.161011,225.029831 1198.568359,232.435455 
z"/>
<path fill="#652543" opacity="1.000000" stroke="none" 
	d="
M1134.800781,229.299332 
	C1129.704956,229.300629 1125.082275,229.300629 1120.148682,229.300629 
	C1120.148682,221.205582 1120.148682,213.477112 1120.148682,205.387451 
	C1126.522461,205.387451 1132.987549,204.853073 1139.320190,205.539749 
	C1145.487671,206.208527 1148.446899,211.322723 1148.028809,218.534317 
	C1147.671021,224.704239 1144.270264,228.398376 1138.256592,229.113327 
	C1137.269043,229.230728 1136.268433,229.239212 1134.800781,229.299332 
z"/>
</svg>