<svg version="1.1" id="Layer_1" xmlns="http://www.w3.org/2000/svg" xmlns:xlink="http://www.w3.org/1999/xlink" x="0px" y="0px"
	 width="100%" viewBox="0 0 1024 608" enable-background="new 0 0 1024 608" xml:space="preserve">
<path fill="#000000" opacity="1.000000" stroke="none" 
	d="
M122.484978,357.467560 
	C118.394775,362.429382 114.538574,367.122284 110.682365,371.815155 
	C110.182686,371.508514 109.683006,371.201874 109.183327,370.895233 
	C121.603996,345.502838 134.024658,320.110443 146.445328,294.718018 
	C146.126236,294.437775 145.807144,294.157501 145.488052,293.877258 
	C109.788139,327.343048 74.088226,360.808807 37.743202,394.879333 
	C37.544930,391.926788 39.080803,391.005798 40.125835,389.916229 
	C75.765106,352.757690 111.464111,315.656281 147.010681,278.409332 
	C150.076492,275.196838 152.123962,274.958008 155.669006,277.641541 
	C167.091797,286.288361 178.869003,294.466187 190.319733,303.077301 
	C193.566910,305.519226 195.494736,305.304901 198.147064,302.267242 
	C216.666885,281.056915 235.359314,259.997498 253.950287,238.849121 
	C258.599060,233.560837 258.500580,233.515945 263.919800,238.402893 
	C270.710052,244.526245 277.539062,250.606613 284.972351,257.261536 
	C295.276001,244.644012 305.316254,232.349060 315.147430,220.310120 
	C317.899750,220.401733 318.776245,222.208084 319.928925,223.533264 
	C340.376831,247.040771 360.844116,270.531952 381.161102,294.152252 
	C383.731384,297.140442 385.534668,297.856934 388.801880,295.099121 
	C394.652496,290.160767 401.006409,285.819885 406.876434,280.902710 
	C410.066345,278.230682 412.022430,278.711182 414.670715,281.665649 
	C432.686127,301.764252 450.833160,321.745087 468.973572,341.731354 
	C483.419189,357.646912 497.922363,373.510193 512.374817,389.419586 
	C513.351990,390.495270 514.734863,391.305939 514.261780,393.743500 
	C484.771179,366.458618 455.280609,339.173706 425.790070,311.888824 
	C425.619385,312.012207 425.448700,312.135590 425.278015,312.258972 
	C435.406799,327.029663 445.535614,341.800385 455.664429,356.571075 
	C455.258118,356.937317 454.851837,357.303528 454.445526,357.669769 
	C436.842285,340.753387 419.239014,323.836975 401.635742,306.920593 
	C401.377747,307.100250 401.119751,307.279907 400.861755,307.459564 
	C412.871979,330.156647 424.882172,352.853729 436.892395,375.550812 
	C436.490662,375.837524 436.088928,376.124207 435.687195,376.410919 
	C410.683411,346.192780 385.679626,315.974640 360.675873,285.756500 
	C366.282715,298.335175 375.192169,308.774323 381.885559,320.570068 
	C381.505402,320.881348 381.125275,321.192657 380.745117,321.503937 
	C367.253418,307.005249 353.761688,292.506561 340.269958,278.007874 
	C339.951416,278.226654 339.632843,278.445404 339.314270,278.664154 
	C350.214020,297.707367 361.113739,316.750580 372.013489,335.793823 
	C371.569092,336.161896 371.124695,336.529999 370.680328,336.898071 
	C358.677216,326.874054 347.829407,315.577759 336.855804,304.446136 
	C325.772278,293.203003 314.947754,281.704498 303.501953,270.594879 
	C316.870026,294.351685 330.238098,318.108490 343.606171,341.865295 
	C343.183014,342.180084 342.759857,342.494843 342.336670,342.809631 
	C315.984009,316.625275 289.631317,290.440918 262.530334,263.513062 
	C243.683563,288.666443 225.286880,313.219116 206.890198,337.771790 
	C206.443466,337.582916 205.996735,337.394043 205.550003,337.205139 
	C208.555878,328.696991 211.561768,320.188843 214.567642,311.680695 
	C214.259918,311.502228 213.952179,311.323730 213.644455,311.145264 
	C202.845520,324.613403 192.046570,338.081543 181.247635,351.549683 
	C180.758011,351.331818 180.268387,351.113953 179.778763,350.896088 
	C181.111160,339.819702 182.443558,328.743347 183.775970,317.666992 
	C183.449936,317.468597 183.123901,317.270203 182.797852,317.071808 
	C170.021606,331.228302 157.245377,345.384796 144.469131,359.541290 
	C144.002975,359.264130 143.536819,358.987000 143.070663,358.709839 
	C146.986877,346.120575 150.903107,333.531311 154.819336,320.942078 
	C154.463120,320.703278 154.106918,320.464508 153.750702,320.225739 
	C143.406799,332.550018 133.062881,344.874298 122.484978,357.467560 
z"/>
<path fill="#000000" opacity="1.000000" stroke="none" 
	d="
M703.257751,259.142517 
	C695.687866,282.765656 688.218201,306.004395 680.748535,329.243134 
	C680.250977,329.353271 679.753479,329.463409 679.255981,329.573517 
	C670.392334,309.357178 661.528687,289.140869 652.002319,267.413025 
	C642.598694,288.843781 633.777100,308.947968 624.955566,329.052155 
	C624.367615,329.085724 623.779663,329.119293 623.191650,329.152893 
	C611.306274,291.957794 599.420837,254.762680 587.349426,216.985489 
	C594.386169,215.317459 600.792664,215.774841 607.153748,216.398941 
	C609.541931,216.633240 609.785095,219.158920 610.378906,221.009735 
	C615.054016,235.583145 619.680603,250.172165 624.342041,264.750000 
	C624.995117,266.792572 625.756287,268.800568 626.974060,272.266632 
	C635.384338,253.182480 643.280762,235.264420 651.177124,217.346359 
	C651.698120,217.337357 652.219177,217.328354 652.740173,217.319351 
	C660.505737,235.039978 668.271301,252.760605 676.177368,270.801880 
	C678.547302,269.160095 678.754822,266.755554 679.420471,264.722290 
	C684.182983,250.175262 688.976624,235.635574 693.451172,220.999008 
	C694.585205,217.289551 696.436279,215.780762 700.180359,215.941849 
	C704.004517,216.106369 707.842834,216.074478 711.670959,215.976166 
	C715.637939,215.874329 716.569519,217.474487 715.349792,221.193588 
	C711.253906,233.682755 707.340942,246.231888 703.257751,259.142517 
z"/>
<path fill="#000000" opacity="1.000000" stroke="none" 
	d="
M942.461548,283.233826 
	C939.160400,283.457642 939.154175,285.547638 939.149719,287.606689 
	C939.138489,292.768585 939.299194,297.936310 939.100891,303.090515 
	C938.958923,306.782959 940.468811,308.131287 944.076355,308.086334 
	C954.232239,307.959717 964.397095,308.239838 974.545044,307.925873 
	C979.510559,307.772278 982.634705,309.124084 984.481995,314.053894 
	C986.257874,318.793213 988.912903,323.203156 991.088013,327.569916 
	C989.054077,329.632141 987.124573,329.143097 985.376099,329.146423 
	C964.894775,329.185120 944.412415,329.063263 923.932800,329.253937 
	C919.354431,329.296570 917.836304,327.780304 917.855347,323.215790 
	C917.995056,289.746796 917.920349,256.276947 917.949768,222.807373 
	C917.955383,216.432587 918.411865,215.994949 924.774048,215.985474 
	C944.922424,215.955444 965.070740,215.964935 985.219116,215.980087 
	C987.010010,215.981430 988.884338,215.712967 991.261536,217.466156 
	C988.163757,223.527084 985.145630,229.709549 981.837952,235.733017 
	C980.858398,237.516907 978.595703,237.122070 976.776367,237.124496 
	C965.952881,237.138870 955.127747,237.246353 944.306824,237.081680 
	C940.463074,237.023193 938.856079,238.300888 939.080566,242.268005 
	C939.334167,246.749573 939.461548,251.285431 939.058411,255.744766 
	C938.580444,261.030853 940.900879,262.295135 945.721191,262.153290 
	C955.370911,261.869324 965.034485,262.043488 974.692383,262.056396 
	C981.403442,262.065369 981.400452,262.086182 981.399414,268.564911 
	C981.398926,271.895203 981.224426,275.239227 981.468384,278.552002 
	C981.728149,282.078796 980.316406,283.217957 976.876099,283.181793 
	C965.554688,283.062805 954.230957,283.177704 942.461548,283.233826 
z"/>
<path fill="#000000" opacity="1.000000" stroke="none" 
	d="
M896.636169,329.189270 
	C882.700562,331.645386 873.090820,327.073975 866.573669,314.590240 
	C862.915039,307.581940 857.341187,301.571045 852.602234,295.131317 
	C851.637085,293.819794 850.960571,292.193665 848.997925,291.564362 
	C843.950500,293.991638 843.717224,301.970032 837.234253,302.670837 
	C831.633179,303.276276 825.958740,303.108154 820.516357,302.217590 
	C819.218445,300.744354 819.629700,299.178528 819.628235,297.733063 
	C819.602112,272.576843 819.710266,247.419830 819.517273,222.265060 
	C819.480835,217.519592 820.900513,215.805969 825.741882,215.899689 
	C843.085510,216.235367 839.976440,214.201492 840.210022,230.050110 
	C840.383240,241.801178 840.244141,253.556854 841.206665,265.589203 
	C845.591431,259.604431 849.981689,253.623657 854.359741,247.633926 
	C860.945312,238.624237 867.634033,229.686737 874.044495,220.554016 
	C876.408020,217.186829 879.189941,215.695663 883.261963,215.928040 
	C889.312134,216.273315 895.430786,215.500824 901.322876,216.353683 
	C901.731506,219.020508 900.307617,220.143646 899.366394,221.431366 
	C887.965698,237.028549 876.656982,252.696030 865.011108,268.108551 
	C862.362671,271.613586 862.692810,273.884247 865.142395,277.165558 
	C876.500916,292.380402 887.640320,307.759094 898.819458,323.107269 
	C899.875610,324.557373 901.295349,325.847351 901.524048,327.831512 
	C900.493530,329.759949 898.623108,328.935089 896.636169,329.189270 
z"/>
<path fill="#000000" opacity="1.000000" stroke="none" 
	d="
M840.056885,308.363342 
	C845.875061,313.916382 847.680176,321.238708 851.049316,327.595428 
	C849.201111,329.633759 847.255310,329.140472 845.514526,329.143188 
	C822.848450,329.178589 800.181335,329.048401 777.516968,329.244995 
	C772.782898,329.286011 771.578674,327.533051 771.596191,323.097107 
	C771.728943,289.431763 771.756470,255.765121 771.566528,222.100281 
	C771.538574,217.142548 773.327209,215.893265 777.955750,215.899109 
	C792.318237,215.917267 792.312195,215.764740 792.312439,230.086258 
	C792.312805,254.085693 792.430176,278.085999 792.232727,302.083771 
	C792.195068,306.668762 793.562622,308.193695 798.170532,308.135651 
	C811.996460,307.961395 825.827332,308.185242 840.056885,308.363342 
z"/>
<path fill="#000000" opacity="1.000000" stroke="none" 
	d="
M747.697937,215.969788 
	C751.807129,215.786514 753.124878,217.605499 753.119080,221.140854 
	C753.063293,255.412354 753.056030,289.684021 753.131409,323.955475 
	C753.139893,327.808746 751.665649,329.407837 747.806152,329.208618 
	C744.155762,329.020203 740.481812,329.034332 736.829773,329.206024 
	C733.105530,329.381134 731.859558,327.695374 731.908936,324.129608 
	C732.040222,314.648468 731.957336,305.164368 731.958557,295.681427 
	C731.961548,271.558167 731.946472,247.434921 731.977478,223.311707 
	C731.986633,216.212387 732.234497,216.015961 739.249756,215.963837 
	C741.911560,215.944061 744.573547,215.960724 747.697937,215.969788 
z"/>
<path fill="#000000" opacity="1.000000" stroke="none" 
	d="
M698.797485,349.052612 
	C701.558716,349.703339 702.412659,352.035583 703.759644,353.864868 
	C711.464050,364.327576 719.121826,374.824554 726.809021,385.299927 
	C727.095276,385.690002 727.521667,385.977264 728.266785,386.668915 
	C729.323059,384.292877 728.819092,382.018677 728.835388,379.862640 
	C728.905945,370.532104 728.856995,361.200684 728.931396,351.870209 
	C728.944031,350.286865 728.779053,348.126251 731.217651,348.223480 
	C733.234497,348.303925 733.195801,350.201233 733.196594,351.675659 
	C733.204895,366.670685 733.177124,381.665710 733.131348,396.660675 
	C733.129944,397.114319 732.822876,397.567017 732.105713,399.542114 
	C722.176697,385.934143 712.795227,373.076630 703.413757,360.219086 
	C703.011047,360.274780 702.608398,360.330475 702.205688,360.386169 
	C702.205688,363.742432 702.207764,367.098694 702.205322,370.454956 
	C702.199219,378.786072 702.209778,387.117310 702.166443,395.448242 
	C702.158691,396.933441 702.157349,398.694946 700.096191,398.826355 
	C698.313354,398.940033 697.897949,397.430817 697.920044,396.078918 
	C698.175171,380.455688 697.102600,364.815674 698.797485,349.052612 
z"/>
<path fill="#000000" opacity="1.000000" stroke="none" 
	d="
M646.635010,353.572815 
	C658.327820,344.918976 671.999207,345.213837 681.677490,354.080475 
	C690.965576,362.589600 692.932251,375.964691 686.506165,386.920135 
	C678.743164,400.154755 661.500305,403.852814 648.738098,395.020203 
	C636.258789,386.383392 633.822571,368.313660 643.589233,356.686768 
	C644.443298,355.670013 645.435852,354.769592 646.635010,353.572815 
M659.337830,351.574615 
	C644.338867,356.339966 637.706360,369.315826 643.522034,382.516785 
	C647.661255,391.912170 658.202454,397.431213 668.093750,395.381683 
	C678.364929,393.253387 685.419739,384.557983 685.995605,374.235321 
	C686.693726,361.720795 675.324585,349.157837 659.337830,351.574615 
z"/>
<path fill="#000000" opacity="1.000000" stroke="none" 
	d="
M987.654053,382.977509 
	C987.628845,375.375702 987.623474,375.528412 980.546814,375.279022 
	C977.766296,375.181030 974.230469,376.803253 971.741394,372.057159 
	C978.054932,371.372192 983.737244,371.533203 989.402161,371.924713 
	C991.406494,372.063202 991.319763,373.957611 991.333435,375.434906 
	C991.376526,380.100616 991.274170,384.768524 991.374084,389.432465 
	C991.432800,392.172455 989.786438,393.651733 987.835266,395.051483 
	C976.866455,402.920380 961.835144,401.011414 952.626953,390.566589 
	C943.816528,380.572937 944.155640,365.429474 953.411804,355.520599 
	C962.528748,345.760742 977.945007,344.386292 988.417542,352.407593 
	C990.276123,353.831116 992.283264,355.245239 989.895203,357.894165 
	C987.102417,357.381165 985.520630,355.239105 983.384521,354.040039 
	C974.368530,348.979248 963.129089,350.808319 956.062378,358.627258 
	C948.918884,366.531036 948.367432,377.899231 954.699585,386.722656 
	C960.533508,394.852020 971.739441,397.885712 981.060669,394.110657 
	C986.022034,392.101349 988.689148,388.986694 987.654053,382.977509 
z"/>
<path fill="#000000" opacity="1.000000" stroke="none" 
	d="
M915.082153,361.956116 
	C921.147278,370.309082 927.007324,378.370117 932.867371,386.431152 
	C933.279602,386.374756 933.691833,386.318359 934.104065,386.261993 
	C934.104065,381.907867 934.082092,377.553619 934.109009,373.199646 
	C934.154236,365.879639 934.185059,358.558899 934.338013,351.240875 
	C934.363892,350.002289 934.519897,348.381287 936.328491,348.257355 
	C937.910828,348.148926 938.230896,349.408234 938.232849,350.611481 
	C938.259155,366.387421 938.250427,382.163422 938.250427,397.939392 
	C937.777100,398.189880 937.303711,398.440338 936.830383,398.690826 
	C927.426025,385.852539 918.021667,373.014252 908.564331,360.103638 
	C906.694946,361.462097 907.412598,363.081055 907.399902,364.390015 
	C907.304565,374.208679 907.393616,384.029358 907.265808,393.847321 
	C907.243225,395.581329 908.310608,398.597931 905.359192,398.583496 
	C902.898743,398.571442 903.670227,395.766846 903.647949,394.092468 
	C903.465942,380.451050 903.356506,366.808594 903.267151,353.166168 
	C903.257507,351.695282 903.288025,350.166260 904.846130,348.135010 
	C908.292969,352.783905 911.585083,357.224060 915.082153,361.956116 
z"/>
<path fill="#000000" opacity="1.000000" stroke="none" 
	d="
M823.314087,358.048279 
	C823.308289,366.029938 823.366394,373.521698 823.281921,381.011780 
	C823.158936,391.900696 816.051758,399.616089 806.034180,399.869568 
	C796.612427,400.107971 788.704956,392.975372 788.149109,382.678497 
	C787.593628,372.387207 787.962402,362.045105 787.973633,351.725342 
	C787.975220,350.252197 787.972290,348.356964 789.929932,348.224060 
	C792.391174,348.056946 792.224060,350.200592 792.233398,351.803680 
	C792.293701,362.124268 792.170471,372.447205 792.345825,382.765320 
	C792.452148,389.018158 797.169189,394.394379 803.042175,395.534607 
	C809.102295,396.711182 815.262329,393.477692 817.861938,387.856537 
	C818.954956,385.493011 818.961609,383.005707 818.970581,380.519226 
	C819.001953,371.863129 818.965637,363.206757 818.974121,354.550507 
	C818.975403,353.221558 818.988281,351.881165 819.158813,350.567200 
	C819.309143,349.408752 819.626099,348.154663 821.174500,348.191406 
	C822.644531,348.226349 823.129822,349.323761 823.182495,350.570862 
	C823.280701,352.897491 823.276062,355.228485 823.314087,358.048279 
z"/>
<path fill="#000000" opacity="1.000000" stroke="none" 
	d="
M745.930176,355.402496 
	C753.534973,344.276489 770.354126,344.617371 775.843872,355.688202 
	C773.962830,358.265930 772.467651,356.458374 770.961548,355.219666 
	C767.472107,352.349731 763.557678,350.885895 758.974854,351.278107 
	C753.727905,351.727142 749.505737,355.244476 748.745911,359.947968 
	C748.098450,363.955658 750.690796,367.373810 756.101379,369.234924 
	C759.395569,370.368103 762.818420,371.121460 766.154907,372.139008 
	C774.868958,374.796631 779.119629,380.103638 778.063538,386.913208 
	C776.900330,394.413635 769.200806,400.246094 760.891357,399.921204 
	C753.375793,399.627411 746.717712,395.914856 743.937256,390.360168 
	C746.258118,387.890076 747.689331,390.206207 749.228333,391.423126 
	C754.428345,395.535004 760.182251,396.989075 766.512634,394.725342 
	C770.888550,393.160492 773.792053,390.293671 773.879944,385.171234 
	C773.965393,380.193237 770.737000,378.064026 766.834290,376.650238 
	C762.466858,375.068146 757.865540,374.110870 753.546448,372.420654 
	C745.384949,369.226685 743.183838,364.231232 745.930176,355.402496 
z"/>
<path fill="#000000" opacity="1.000000" stroke="none" 
	d="
M626.980103,396.174866 
	C611.541138,403.673431 595.708313,398.293030 589.366577,383.693298 
	C583.527649,370.251068 590.130127,354.348785 604.017639,349.020691 
	C612.868774,345.624908 621.378418,346.817596 629.164978,352.262024 
	C630.674255,353.317322 633.247375,354.600464 631.571106,356.906677 
	C629.872620,359.243469 628.385071,356.680206 627.090088,355.747498 
	C617.502502,348.841888 604.987122,349.946533 597.202759,358.471100 
	C589.544128,366.857941 589.399719,379.569458 596.865845,388.129822 
	C604.318237,396.674500 616.698364,398.179810 626.290649,391.740601 
	C627.644287,390.831940 628.722717,389.408264 630.993958,389.275574 
	C633.639648,393.564240 629.071899,394.094452 626.980103,396.174866 
z"/>
<path fill="#000000" opacity="1.000000" stroke="none" 
	d="
M847.200256,394.921631 
	C854.320251,394.932373 860.968201,394.901581 867.615112,394.972443 
	C869.878662,394.996552 872.428589,394.883636 872.443970,398.140778 
	C871.378784,399.387146 870.159241,399.248718 869.026123,399.251068 
	C859.885742,399.269989 850.744690,399.196259 841.605225,399.285950 
	C838.312927,399.318268 836.737427,398.164856 836.760803,394.657043 
	C836.854736,380.531616 836.782166,366.405121 836.819519,352.279144 
	C836.823669,350.694000 836.490356,348.410492 838.703674,348.274445 
	C841.382996,348.109802 841.063904,350.604553 841.072876,352.323822 
	C841.137390,364.621521 841.265625,376.922302 841.048096,389.216309 
	C840.971985,393.522369 842.317017,395.517761 847.200256,394.921631 
z"/>
<path fill="#000000" opacity="1.000000" stroke="none" 
	d="
M862.320923,378.914856 
	C861.648560,381.903839 863.911133,386.545166 860.401550,386.567963 
	C856.430786,386.593781 858.192200,381.869263 858.097351,379.237549 
	C857.839905,372.089996 857.889954,364.923737 858.069153,357.771179 
	C858.164978,353.944977 857.211426,351.675476 852.827942,352.016815 
	C850.851135,352.170776 848.718384,351.977936 847.955750,348.275421 
	C856.152161,347.286011 864.177246,347.671265 872.390625,348.082184 
	C872.562561,351.783844 870.305603,352.198700 868.170227,351.980591 
	C863.073181,351.459839 862.011414,353.937073 862.227783,358.460632 
	C862.545593,365.103241 862.316528,371.772034 862.320923,378.914856 
z"/>
<path fill="#000000" opacity="1.000000" stroke="none" 
	d="
M891.313660,364.003601 
	C891.305603,374.500519 891.331482,384.498688 891.256836,394.496124 
	C891.244263,396.181519 891.811951,398.744385 889.121399,398.724426 
	C886.533752,398.705261 886.923096,396.201355 886.918457,394.470337 
	C886.880676,380.473419 886.883667,366.476166 886.958618,352.479462 
	C886.967712,350.788300 886.563599,348.231659 889.159485,348.241486 
	C891.818909,348.251587 891.219788,350.813080 891.270874,352.507874 
	C891.381165,356.170593 891.310364,359.838715 891.313660,364.003601 
z"/>
</svg>