<svg xmlns="http://www.w3.org/2000/svg" viewBox="0 0 953.64985 184.10217"><defs><style>.cls-1{fill:#fff;}</style></defs><g id="Layer_2" data-name="Layer 2"><g id="Layer_1-2" data-name="Layer 1"><path class="cls-1" d="M84.75922,141.63558c-4.0902,4.96182-7.94641,9.65473-11.80261,14.3476l-1.499-.91993q18.631-38.08859,37.262-76.17721l-.95728-.84076C72.06238,111.51107,36.36247,144.97683.01744,179.04736c-.19827-2.95255,1.3376-3.87354,2.38264-4.96311Q55.859,118.34644,109.28492,62.57735c3.06581-3.21249,5.11328-3.45132,8.65833-.76779,11.42279,8.64682,23.2,16.82465,34.65072,25.43576,3.24718,2.44193,5.175,2.2276,7.82733-.81006,18.51983-21.21032,37.21225-42.26974,55.80323-63.41812,4.64877-5.28828,4.55029-5.33317,9.96951-.44623,6.79025,6.12336,13.61926,12.20372,21.05255,18.85865q15.45547-18.9263,30.17508-36.95142c2.75232.09161,3.62882,1.898,4.78149,3.22315q30.67186,35.26125,61.23218,70.619c2.57028,2.98819,4.37357,3.70469,7.64078.94687,5.85062-4.93835,12.20453-9.27923,18.07455-14.19641,3.18992-2.672,5.146-2.19153,7.79429.76294q27.02312,30.1479,54.30285,60.06571,21.66843,23.87333,43.40125,47.68823c.97717,1.07568,2.36,1.88635,1.887,4.32391q-44.2359-40.92732-88.47171-81.85467l-.512.37014q15.19317,22.156,30.38641,44.31211l-1.2189,1.09869L363.91,91.08861l-.774.539q18.01533,34.04562,36.03064,68.09124l-1.2052.86011q-37.50568-45.32721-75.01133-90.65442c5.60685,12.57868,14.5163,23.01782,21.20969,34.81357q-.57024.46692-1.14044.93387-20.23755-21.748-40.47516-43.49606-.47781.32817-.95569.65628,16.34963,28.56481,32.69922,57.12966-.6666.55212-1.33316,1.10425c-12.00311-10.024-22.85092-21.32031-33.82453-32.45193C288.04652,77.371,277.222,65.87252,265.77619,54.7629l40.10422,71.27042q-.63474.47218-1.2695.94433c-26.35266-26.18435-52.70535-52.36871-79.80634-79.29657l-55.64013,74.25873q-.6701-.2833-1.3402-.56665,4.50882-12.76222,9.01764-25.52444l-.92318-.53543q-16.19841,20.2022-32.39682,40.40441l-1.46888-.65359q1.9986-16.61459,3.99721-33.2291l-.97812-.59518q-19.16436,21.23474-38.32872,42.46948l-1.39847-.83145q5.87433-18.88389,11.74868-37.76776l-1.06864-.71634C105.681,116.718,95.33712,129.04232,84.75922,141.63558Z"/><path class="cls-1" d="M665.532,43.31054c-7.56988,23.62314-15.03955,46.86188-22.50921,70.10062q-.74634.16519-1.49256.33038c-8.86365-20.21634-17.72729-40.43265-27.25366-62.16049-9.40363,21.43075-18.22522,41.53494-27.04675,61.63913q-.88194.05035-1.76392.10073C573.58051,76.12582,561.69508,38.9307,549.62367,1.15351,556.66041-.51452,563.0669-.05714,569.428.567c2.38818.2343,2.63135,2.76,3.22516,4.6108q7.01267,21.86012,13.96313,43.74026c.65308,2.04257,1.41425,4.05057,2.632,7.51663,8.41028-19.08415,16.3067-37.00221,24.20306-54.92027l1.563-.027C622.78,19.208,630.54554,36.92863,638.45161,54.9699c2.36993-1.64178,2.57745-4.04632,3.2431-6.07959,4.76251-14.547,9.55615-29.08671,14.0307-43.72328,1.134-3.70946,2.98511-5.21825,6.72919-5.05716,3.82416.16452,7.66247.13263,11.4906.03432,3.967-.10184,4.89856,1.49832,3.67883,5.21742C673.52815,17.85078,669.61518,30.39991,665.532,43.31054Z"/><path class="cls-1" d="M904.73579,67.40185c-3.30115.22381-3.30737,2.31381-3.31183,4.37286-.01123,5.1619.14947,10.32962-.04883,15.48383-.142,3.69244,1.36792,5.04077,4.97547,4.99582,10.15588-.12662,20.32073.1535,30.46868-.16047,4.96552-.15359,8.08966,1.19822,9.93695,6.128,1.77588,4.73931,4.43091,9.14926,6.606,13.516-2.03393,2.06222-3.96344,1.57318-5.71191,1.5765-20.48132.0387-40.96369-.08316-61.4433.10752-4.57837.04263-6.0965-1.47363-6.07745-6.03815.13971-33.469.065-66.93884.09442-100.40842.00561-6.37478.4621-6.81242,6.82428-6.82189q30.22256-.045,60.44507-.00539c1.79089.00134,3.66522-.26712,6.04242,1.48607-3.09778,6.06093-6.11591,12.24339-9.42359,18.26686-.97955,1.78389-3.24225,1.38905-5.06158,1.39148-10.82349.01437-21.64862.12185-32.46955-.04282-3.84375-.05849-5.45074,1.21921-5.22625,5.18633a92.30242,92.30242,0,0,1-.02216,13.47676c-.478,5.28608,1.84247,6.55037,6.66278,6.40852,9.64972-.284,19.3133-.1098,28.97119-.09689,6.71106.009,6.70807.02978,6.707,6.50851-.00048,3.33029-.175,6.67432.069,9.98709.25977,3.5268-1.152,4.666-4.59228,4.62979C927.82893,67.23083,916.5052,67.34573,904.73579,67.40185Z"/><path class="cls-1" d="M858.91041,113.35729c-13.93561,2.45612-23.54535-2.11529-30.0625-14.599-3.65863-7.0083-9.23248-13.01919-13.97144-19.45892-.96514-1.31152-1.64166-2.93765-3.6043-3.567-5.04743,2.42728-5.28071,10.40567-11.76368,11.10648a62.44343,62.44343,0,0,1-16.71789-.45325c-1.29791-1.47323-.88666-3.03906-.88812-4.48453-.02613-25.15622.082-50.31323-.111-75.468-.03643-4.74547,1.38324-6.45909,6.22461-6.36537,17.34363.33568,14.23456-1.6982,14.46814,14.15042.17322,11.75107.03412,23.50675.99665,35.53909Q810.05805,40.78007,816.634,31.802c6.58557-9.00969,13.27429-17.94719,19.68475-27.07991,2.36353-3.36719,5.14545-4.85835,9.21747-4.626,6.05017.34528,12.16883-.42721,18.06092.42565.40863,2.66682-1.01526,3.79-1.95649,5.07768-11.40069,15.59718-22.70941,31.26466-34.35528,46.67718-2.64844,3.505-2.3183,5.7757.13129,9.057,11.35852,15.21484,22.49792,30.59354,33.67706,45.94171,1.05615,1.4501,2.47589,2.74008,2.70459,4.72424C862.76777,113.928,860.89735,113.10311,858.91041,113.35729Z"/><path class="cls-1" d="M802.33113,92.53136c5.81817,5.553,7.62329,12.87537,10.99243,19.23209-1.84821,2.03833-3.794,1.545-5.53479,1.54776-22.66608.0354-45.33319-.09479-67.99756.10181-4.73407.041-5.9383-1.712-5.92078-6.14789q.19912-50.498-.02966-100.99683c-.028-4.95773,1.76068-6.207,6.38922-6.20117,14.36249.01816,14.35645-.13437,14.35669,14.18715.00037,23.99943.11774,47.99974-.07971,71.99751-.03766,4.585,1.32989,6.10993,5.9378,6.05188C774.2707,92.12942,788.10157,92.35326,802.33113,92.53136Z"/><path class="cls-1" d="M709.97218.13781c4.10919-.18327,5.42694,1.63571,5.42114,5.17107q-.08368,51.40725.01233,102.81462c.00848,3.85327-1.46576,5.45236-5.32526,5.25314-3.65039-.18842-7.32434-.17429-10.97638-.00259-3.72424.17511-4.97021-1.51065-4.92083-5.07642.13128-9.48114.0484-18.96524.04962-28.44818q.00448-36.18489.01892-72.36972c.00915-7.09932.257-7.29575,7.27228-7.34787C704.1858.11208,706.84779.12875,709.97218.13781Z"/><path class="cls-1" d="M661.07173,133.22063c2.76123.65073,3.61517,2.983,4.96215,4.81226Q677.5905,153.727,689.08326,169.468a13.57752,13.57752,0,0,0,1.45776,1.369c1.05628-2.376.55231-4.65024.56861-6.80628.07056-9.33053.0216-18.662.096-27.99243.01263-1.58334-.15235-3.744,2.28625-3.64673,2.01685.08045,1.97815,1.97775,1.97894,3.45218q.01247,22.49254-.06524,44.985a15.8442,15.8442,0,0,1-1.02564,2.88144c-9.929-13.608-19.31048-26.46549-28.692-39.323l-1.20807.16708q0,5.03439-.00037,10.06879c-.0061,8.33111.00446,16.66235-.03888,24.99328-.00775,1.4852-.00909,3.24671-2.07025,3.37812-1.78284.11367-2.19824-1.39554-2.17615-2.74744C660.44941,164.62371,659.37684,148.9837,661.07173,133.22063Z"/><path class="cls-1" d="M608.90925,137.74084c11.69281-8.65384,25.3642-8.359,35.04248.50766a26.329,26.329,0,0,1-32.93939,40.93972,26.42434,26.42434,0,0,1-5.14887-38.33343c.85407-1.01676,1.84662-1.91718,3.04578-3.114m12.70282-1.9982c-14.999,4.76535-21.63147,17.74121-15.8158,30.94217a22.172,22.172,0,0,0,42.47358-8.28147C648.968,145.88882,637.59883,133.32586,621.61207,135.74264Z"/><path class="cls-1" d="M949.92829,167.14553c-.0252-7.60181-.03058-7.4491-7.10724-7.69849-2.78051-.098-6.31634,1.52423-8.80542-3.22186a97.15346,97.15346,0,0,1,17.66077-.13245c2.00433.13849,1.9176,2.0329,1.93128,3.5102.04309,4.66571-.05927,9.33362.04064,13.99756.05872,2.74-1.58764,4.21926-3.53881,5.619-10.96881,7.8689-26.00013,5.95994-35.20832-4.48489a26.06189,26.06189,0,0,1,.78485-35.046,26.4314,26.4314,0,0,1,35.00574-3.113c1.85858,1.42353,3.86572,2.83765,1.47766,5.48658-2.79278-.513-4.37457-2.65506-6.51068-3.85413a22.25416,22.25416,0,0,0-28.68493,32.68262,22.46679,22.46679,0,0,0,26.36108,7.388C948.29627,176.26937,950.96339,173.15472,949.92829,167.14553Z"/><path class="cls-1" d="M877.35639,146.12414c6.06513,8.353,11.92517,16.414,17.78522,24.475q.61834-.08458,1.2367-.16916c0-4.35412-.022-8.70837.00494-13.06234.04523-7.32.07605-14.64075.229-21.95877.02588-1.23859.18189-2.85959,1.99048-2.98352,1.58234-.10843,1.90241,1.15088,1.90436,2.35412q.03947,23.66391.01758,47.32791-.71.37574-1.42005.75144-14.10652-19.25744-28.266-38.58719c-1.86938,1.35846-1.15173,2.97742-1.16443,4.28638-.09533,9.81866-.00628,19.63934-.13409,29.4573-.02258,1.734,1.0448,4.75061-1.90662,4.73618-2.46045-.01206-1.689-2.81665-1.71124-4.491q-.273-20.46213-.3808-40.9263a7.096,7.096,0,0,1,1.579-5.03116C870.56721,136.95193,873.85932,141.39208,877.35639,146.12414Z"/><path class="cls-1" d="M785.58833,142.2163c-.0058,7.98166.0523,15.47342-.03217,22.9635-.123,10.88892-7.23016,18.60431-17.24774,18.85779-9.42175.2384-17.32922-6.8942-17.88507-17.19107-.55548-10.29129-.18671-20.63339-.17548-30.95316.00159-1.47314-.00134-3.36837,1.9563-3.50128,2.46124-.16711,2.29413,1.97653,2.30347,3.57962.0603,10.32059-.06293,20.64353.11243,30.96164a13.44937,13.44937,0,0,0,10.69635,12.76929,13.60416,13.60416,0,0,0,14.81976-7.67807c1.093-2.36353,1.09967-4.85083,1.10864-7.33731.03137-8.6561-.00494-17.31247.00354-25.96872a31.25363,31.25363,0,0,1,.18469-3.98331c.15033-1.15845.46729-2.41254,2.01569-2.37579,1.47.03494,1.95532,1.13235,2.008,2.37945C785.55494,137.06551,785.5503,139.39651,785.58833,142.2163Z"/><path class="cls-1" d="M708.20442,139.57052c7.60479-11.126,24.42395-10.78513,29.91369.2857-1.881,2.57773-3.37622.77018-4.88232-.46853a16.071,16.071,0,0,0-11.9867-3.94156c-5.24694.449-9.46911,3.96637-10.22894,8.66986-.64746,4.00769,1.94489,7.42584,7.35547,9.287,3.29419,1.13317,6.717,1.88653,10.05353,2.90408,8.714,2.65762,12.96472,7.96463,11.90863,14.7742-1.16321,7.50043-8.86273,13.33289-17.17218,13.008-7.51557-.2938-14.17365-4.00635-16.9541-9.561,2.32086-2.47009,3.75207-.154,5.29107,1.063,5.2,4.11188,10.95392,5.566,17.2843,3.30221,4.37592-1.56485,7.27942-4.43167,7.36731-9.5541.08545-4.978-3.14294-7.10721-7.04565-8.521-4.36743-1.58209-8.96875-2.53937-13.28784-4.22958C707.65919,153.39471,705.45808,148.39925,708.20442,139.57052Z"/><path class="cls-1" d="M589.25434,180.34289c-15.439,7.49856-31.27179,2.11816-37.61352-12.48157a26.14154,26.14154,0,0,1,14.65106-34.67261c8.85113-3.39578,17.36078-2.20309,25.14734,3.24134,1.50928,1.05529,4.0824,2.33844,2.40613,4.64465-1.69849,2.33679-3.186-.22647-4.481-1.15918-9.58759-6.90561-22.103-5.801-29.88733,2.7236a22.23237,22.23237,0,0,0,29.08789,33.2695c1.35364-.90866,2.43207-2.33233,4.70331-2.465C595.91389,177.73226,591.34614,178.26247,589.25434,180.34289Z"/><path class="cls-1" d="M809.4745,179.08965c7.12.01074,13.76794-.02,20.41485.05081,2.26355.02411,4.81348-.0888,4.82886,3.16834-1.06519,1.24637-2.28473,1.10794-3.41785,1.11029-9.14038.01892-18.28143-.05481-27.4209.03488-3.29229.03232-4.86779-1.12109-4.84442-4.6289.09394-14.12543.02137-28.25193.05872-42.3779.00415-1.58515-.32916-3.86866,1.88415-4.0047,2.67933-.16465,2.36023,2.3301,2.36921,4.04937.06451,12.2977.19275,24.59848-.02478,36.89249C803.24623,177.69039,804.59126,179.68578,809.4745,179.08965Z"/><path class="cls-1" d="M824.59516,163.08288c-.67236,2.989,1.59021,7.63031-1.91937,7.6531-3.97076.02582-2.20935-4.6987-2.3042-7.33041-.25744-7.14755-.2074-14.31381-.0282-21.46637.09583-3.8262-.85772-6.0957-5.24121-5.75436-1.9768.154-4.10956-.03888-4.87219-3.7414,8.19641-.98941,16.2215-.60415,24.43488-.19323.17193,3.70166-2.085,4.11651-4.2204,3.8984-5.097-.52075-6.15882,1.95648-5.94245,6.48C824.81983,149.27126,824.59077,155.94006,824.59516,163.08288Z"/><path class="cls-1" d="M853.5879,148.17162c-.00806,10.49692.01782,20.49509-.05682,30.49253-.01258,1.68539.55511,4.24826-2.13544,4.2283-2.58765-.01917-2.1983-2.52307-2.20294-4.25409q-.05667-20.99538.04016-41.99088c.00909-1.69116-.395-4.2478,2.20087-4.238,2.65942.0101,2.0603,2.57159,2.11138,4.26639C853.6554,140.33861,853.5846,144.00674,853.5879,148.17162Z"/></g></g></svg>